<?xml version="1.0" standalone="no"?>
<!DOCTYPE svg PUBLIC "-//W3C//DTD SVG 20010904//EN"
 "http://www.w3.org/TR/2001/REC-SVG-20010904/DTD/svg10.dtd">
<svg version="1.0" xmlns="http://www.w3.org/2000/svg"
 width="1024.000000pt" height="258.000000pt" viewBox="0 0 1024.000000 258.000000"
 preserveAspectRatio="xMidYMid meet">
<metadata>
Created by potrace 1.15, written by Peter Selinger 2001-2017
</metadata>
<g transform="translate(0.000000,258.000000) scale(0.100000,-0.100000)"
fill="#000000" stroke="none">
<path d="M1546 2380 c-44 -13 -94 -52 -107 -82 -6 -15 -15 -26 -19 -23 -19 12
-32 -27 -28 -80 6 -70 45 -129 108 -163 113 -60 266 15 287 142 8 51 -4 106
-22 99 -9 -3 -15 1 -15 10 0 23 -74 84 -111 92 -19 3 -41 8 -49 10 -8 2 -28
-1 -44 -5z m88 -71 c26 -21 35 -65 17 -84 -5 -6 -16 -35 -23 -65 -12 -47 -18
-55 -38 -55 -20 0 -26 8 -38 55 -7 30 -18 59 -23 65 -5 5 -9 21 -9 36 0 30 40
69 70 69 10 0 29 -9 44 -21z"/>
<path d="M948 2110 c-20 -11 -47 -34 -60 -52 -12 -18 -31 -41 -40 -50 -40 -40
-10 -147 55 -205 62 -54 133 -66 207 -32 56 25 77 44 101 91 30 59 23 172 -9
161 -10 -4 -14 -3 -10 2 11 11 -55 73 -96 90 -48 20 -103 18 -148 -5z m87 -94
c24 -13 41 -31 43 -44 2 -12 6 -22 10 -22 17 -1 54 -38 48 -49 -5 -8 -15 -5
-33 9 -32 25 -48 25 -80 0 -14 -11 -33 -20 -42 -20 -24 0 -61 29 -70 54 -11
29 7 79 26 72 8 -3 12 -2 8 3 -6 10 11 19 35 20 8 0 33 -10 55 -23z"/>
<path d="M2108 2052 c-15 -10 -46 -38 -68 -62 -35 -38 -40 -49 -40 -92 0 -148
157 -242 290 -173 70 36 117 129 104 203 -8 43 -23 77 -24 52 0 -8 -13 1 -30
21 -16 20 -45 44 -64 53 -46 22 -133 21 -168 -2z m212 -147 l0 -75 -130 0
-130 0 0 75 0 75 130 0 130 0 0 -75z"/>
<path d="M2850 1371 l0 -441 55 0 55 0 0 195 0 195 83 0 c106 0 173 20 214 62
54 57 68 95 68 183 0 102 -29 165 -96 210 -44 30 -44 30 -211 33 l-168 3 0
-440z m311 314 c82 -43 74 -198 -12 -242 -13 -7 -61 -13 -106 -13 l-83 0 0
141 0 141 85 -6 c47 -3 99 -13 116 -21z"/>
<path d="M1500 1779 c-163 -27 -311 -157 -360 -317 -86 -277 100 -561 391
-596 215 -26 438 127 493 339 42 161 -2 324 -119 440 -72 72 -141 111 -232
130 -76 16 -94 17 -173 4z m140 -274 l0 -115 115 0 115 0 0 -65 0 -65 -115 0
-115 0 0 -115 0 -115 -65 0 -65 0 0 115 0 115 -115 0 -115 0 0 65 0 65 115 0
115 0 0 115 0 115 65 0 65 0 0 -115z"/>
<path d="M8803 1527 c-51 -58 -93 -108 -93 -111 0 -3 20 -6 45 -6 l45 0 0
-172 c0 -192 7 -232 47 -270 52 -48 111 -56 201 -25 31 11 32 13 32 64 l0 54
-28 -15 c-53 -27 -95 -29 -125 -6 l-27 21 0 175 0 174 80 0 80 0 0 50 0 50
-80 0 -79 0 -3 61 -3 61 -92 -105z"/>
<path d="M3642 1504 c-12 -8 -38 -39 -57 -67 l-35 -52 0 63 0 62 -50 0 -50 0
0 -290 0 -290 50 0 50 0 0 183 c0 207 11 250 72 287 43 26 58 25 102 -5 20
-14 39 -25 41 -25 11 0 46 83 41 96 -9 23 -69 54 -106 54 -20 0 -46 -7 -58
-16z"/>
<path d="M4683 1499 c-50 -25 -88 -67 -117 -129 -27 -59 -29 -234 -3 -292 24
-53 73 -106 121 -130 48 -25 159 -29 218 -9 35 12 36 14 40 66 1 30 0 55 -3
55 -4 0 -24 -7 -45 -16 -54 -23 -140 -15 -183 16 -99 70 -94 269 9 338 29 20
44 23 88 19 29 -3 69 -15 88 -26 l34 -20 0 58 0 59 -40 16 c-58 23 -155 21
-207 -5z"/>
<path d="M5875 1498 c-15 -12 -41 -42 -56 -67 l-29 -45 0 62 0 62 -50 0 -50 0
0 -291 0 -290 48 3 47 3 5 190 c5 201 11 225 59 270 29 26 83 25 120 -3 17
-12 33 -22 35 -22 11 0 47 83 42 96 -9 24 -69 54 -107 54 -22 0 -47 -9 -64
-22z"/>
<path d="M6275 1504 c-80 -41 -129 -124 -141 -235 -14 -143 42 -270 141 -322
79 -40 265 -13 295 44 9 17 14 99 6 99 -2 0 -25 -12 -52 -27 -64 -37 -176 -40
-221 -7 -33 24 -73 97 -73 134 l0 25 176 -3 176 -3 -4 68 c-5 96 -44 175 -106
214 -38 24 -57 29 -106 29 -36 0 -74 -7 -91 -16z m140 -88 c35 -15 58 -48 70
-103 l7 -33 -131 0 -131 0 6 28 c11 48 39 86 74 104 42 22 60 22 105 4z"/>
<path d="M6905 1508 c-11 -6 -35 -24 -52 -41 l-33 -31 0 37 0 37 -50 0 -50 0
0 -290 0 -290 50 0 50 0 0 213 c0 232 2 242 60 272 55 28 118 13 141 -34 9
-18 14 -89 17 -239 l4 -213 46 3 47 3 3 215 c2 203 4 215 24 237 52 56 134 53
170 -5 22 -35 23 -49 27 -244 l3 -208 45 0 45 0 -4 233 c-3 221 -4 234 -26
272 -33 57 -77 85 -136 85 -56 0 -89 -16 -135 -64 l-34 -36 -19 30 c-26 44
-75 70 -128 70 -25 0 -54 -6 -65 -12z"/>
<path d="M7714 1488 c-36 -24 -57 -49 -79 -92 -28 -56 -30 -67 -30 -170 0
-124 16 -173 77 -235 51 -52 83 -63 170 -63 65 0 89 5 134 27 l54 26 0 55 0
54 -51 -26 c-53 -28 -129 -41 -173 -30 -46 11 -95 64 -111 119 -8 28 -14 52
-12 53 1 2 81 4 177 6 l175 3 -2 62 c-2 102 -57 198 -130 229 -18 8 -59 14
-92 14 -50 0 -66 -5 -107 -32z m177 -81 c39 -26 59 -60 59 -99 l0 -28 -125 0
c-136 0 -136 0 -114 57 32 84 113 116 180 70z"/>
<path d="M8337 1486 l-47 -36 0 30 c0 29 -1 30 -50 30 l-50 0 0 -291 0 -290
48 3 47 3 3 208 c3 227 6 243 63 273 33 16 82 18 109 4 40 -21 45 -48 50 -270
l5 -215 48 -3 49 -3 -4 233 c-3 255 -5 263 -67 323 -26 24 -41 30 -94 33 -59
4 -65 2 -110 -32z"/>
<path d="M4035 1482 c-156 -86 -195 -328 -74 -466 59 -67 108 -90 194 -90 59
0 79 4 125 29 99 54 144 139 143 271 -1 117 -63 221 -158 265 -64 29 -167 26
-230 -9z m188 -83 c45 -23 78 -64 93 -116 27 -94 -1 -180 -76 -231 -29 -20
-44 -23 -93 -20 -69 5 -103 27 -134 88 -46 90 -20 217 56 267 38 25 116 31
154 12z"/>
<path d="M5090 1298 c0 -237 7 -277 54 -324 65 -65 159 -66 230 -3 l35 30 3
-33 c3 -32 5 -33 51 -36 l47 -3 0 290 0 291 -50 0 -50 0 0 -213 c0 -209 -1
-214 -22 -234 -34 -31 -63 -43 -102 -43 -49 0 -64 8 -84 44 -13 25 -17 68 -20
239 l-4 207 -44 0 -44 0 0 -212z"/>
<path d="M742 1490 c-40 -9 -100 -50 -108 -72 -3 -11 -11 -15 -22 -11 -15 6
-15 5 -3 -10 12 -15 12 -17 -1 -12 -10 4 -17 -2 -22 -17 -11 -45 -6 -85 20
-136 93 -186 373 -119 374 90 0 43 -4 51 -51 98 -66 66 -119 87 -187 70z m158
-81 c0 -5 -6 -9 -14 -9 -20 0 -26 -24 -27 -108 -1 -69 -2 -72 -25 -72 -17 0
-24 6 -24 20 0 18 -7 20 -65 20 -96 0 -80 20 18 22 l82 2 -85 5 c-85 6 -85 6
-91 36 -14 63 -14 63 59 70 37 4 83 10 102 14 53 11 70 11 70 0z"/>
<path d="M2298 1480 c-39 -12 -67 -34 -94 -74 -14 -20 -30 -35 -37 -33 -8 1
-13 -16 -15 -50 -9 -148 149 -248 286 -182 54 27 99 86 108 144 7 52 -3 108
-19 98 -7 -4 -8 0 -4 11 4 10 3 15 -3 11 -5 -3 -25 10 -45 29 -48 48 -113 65
-177 46z m53 -52 l2 -23 4 23 c5 24 5 24 27 16 19 -7 22 -72 4 -79 -10 -4 -12
-29 -9 -91 3 -91 -3 -106 -41 -96 -19 5 -19 10 -13 93 6 77 5 90 -9 95 -19 7
-22 54 -4 72 19 19 38 14 39 -10z"/>
<path d="M864 891 c-24 -11 -56 -39 -77 -65 -21 -27 -37 -41 -40 -34 -2 7 -7
-6 -11 -28 -11 -63 9 -122 58 -170 126 -127 335 -40 336 139 0 43 -4 52 -47
97 -73 78 -141 96 -219 61z m149 -95 c-2 -28 -32 -66 -53 -66 -20 0 -15 -47 7
-72 15 -17 13 -18 -30 -18 -45 0 -63 15 -32 26 24 10 19 58 -7 69 -28 13 -53
57 -45 79 6 14 19 16 84 14 l78 -3 -2 -29z"/>
<path d="M2022 833 c-18 -9 -45 -31 -59 -50 -14 -18 -31 -33 -38 -33 -18 0
-28 -53 -21 -105 14 -90 103 -165 197 -165 117 1 207 98 197 215 -2 29 -7 39
-18 37 -8 -2 -12 -1 -8 3 9 9 -60 83 -94 101 -36 19 -115 17 -156 -3z m155
-64 c21 -18 43 -64 43 -92 0 -37 -41 -91 -80 -103 -43 -14 -86 -3 -120 31 -35
36 -36 112 -1 149 41 44 114 51 158 15z"/>
<path d="M2064 771 c-34 -15 -54 -51 -54 -97 0 -85 100 -125 161 -65 58 58 28
156 -51 166 -19 3 -45 1 -56 -4z"/>
<path d="M1475 586 c-34 -15 -95 -71 -95 -87 0 -5 -4 -8 -9 -4 -17 10 -29 -60
-20 -110 28 -150 215 -209 333 -106 31 28 58 92 59 143 1 43 -3 52 -44 94 -73
76 -153 101 -224 70z"/>
</g>
</svg>
